<?xml version="1.0" standalone="no"?>
<!DOCTYPE svg PUBLIC "-//W3C//DTD SVG 20010904//EN"
 "http://www.w3.org/TR/2001/REC-SVG-20010904/DTD/svg10.dtd">
<svg version="1.0" xmlns="http://www.w3.org/2000/svg"
 width="820.000000pt" height="512.000000pt" viewBox="0 0 820.000000 512.000000"
 preserveAspectRatio="xMidYMid meet">

<g transform="translate(0.000000,512.000000) scale(0.100000,-0.100000)"
fill="#000000" stroke="none">
<path d="M4043 4728 c-138 -178 -254 -377 -313 -538 -17 -47 -35 -89 -39 -93
-5 -5 -31 11 -58 35 -103 90 -234 174 -403 258 -133 66 -236 107 -246 97 -3
-3 -13 -54 -21 -114 -21 -143 -20 -443 1 -582 9 -57 14 -106 11 -109 -2 -3
-37 0 -77 7 -136 21 -312 30 -444 21 -136 -10 -273 -25 -280 -32 -7 -8 42
-140 74 -201 17 -31 30 -58 30 -60 -1 -1 17 -38 41 -82 46 -84 142 -225 210
-310 22 -27 37 -53 33 -56 -4 -3 -41 -19 -82 -34 -181 -67 -433 -216 -575
-340 l-40 -34 35 -32 c133 -119 419 -288 593 -349 37 -13 67 -27 67 -32 0 -4
-34 -51 -75 -104 -121 -154 -231 -349 -295 -525 -26 -71 -27 -78 -12 -83 116
-35 534 -42 722 -12 186 29 278 58 423 133 49 25 115 65 146 88 l58 42 109
-28 c176 -47 270 -57 454 -53 215 6 330 19 467 55 192 50 367 137 507 253 269
222 399 382 482 593 l33 84 -19 52 c-91 241 -337 491 -670 679 -57 33 -220
100 -282 118 -27 7 -48 15 -48 19 0 3 5 56 11 116 7 79 7 141 -1 220 -11 106
-44 269 -60 290 -3 6 -19 46 -34 90 -39 113 -142 306 -227 427 -81 115 -140
188 -150 188 -4 0 -29 -28 -56 -62z m387 -1589 c92 -42 134 -107 134 -209 0
-162 -144 -265 -307 -219 -49 13 -115 73 -138 124 -24 52 -24 138 0 191 21 46
91 111 136 123 53 16 128 12 175 -10z m-909 -41 c-165 -250 -165 -556 -2 -796
267 -394 834 -413 1133 -40 190 236 201 572 27 836 -11 17 -18 32 -15 32 16 0
180 -89 256 -139 108 -71 273 -235 322 -321 57 -97 58 -117 10 -213 -93 -189
-346 -413 -582 -518 -340 -151 -849 -143 -1181 20 -245 120 -494 361 -566 549
-13 35 -14 49 -4 82 31 105 192 286 347 391 77 52 251 148 267 149 5 0 -1 -15
-12 -32z"/>
</g>
</svg>
